<?xml version="1.0" encoding="UTF-8" standalone="no"?>
<!-- Created with Inkscape (http://www.inkscape.org/) -->

<svg
   width="88.625465mm"
   height="88.625465mm"
   viewBox="0 0 88.625465 88.625464"
   version="1.1"
   id="svg1"
   inkscape:export-filename="metapin_logo_5.png"
   inkscape:export-xdpi="96"
   inkscape:export-ydpi="96"
   inkscape:version="1.4.1 (1:1.4.1+202503302257+93de688d07)"
   sodipodi:docname="drawing.svg"
   xml:space="preserve"
   xmlns:inkscape="http://www.inkscape.org/namespaces/inkscape"
   xmlns:sodipodi="http://sodipodi.sourceforge.net/DTD/sodipodi-0.dtd"
   xmlns="http://www.w3.org/2000/svg"
   xmlns:svg="http://www.w3.org/2000/svg"><sodipodi:namedview
     id="namedview1"
     pagecolor="#ffffff"
     bordercolor="#000000"
     borderopacity="0.25"
     inkscape:showpageshadow="2"
     inkscape:pageopacity="0.0"
     inkscape:pagecheckerboard="0"
     inkscape:deskcolor="#d1d1d1"
     inkscape:document-units="mm"
     inkscape:export-bgcolor="#2e2e2eff"
     inkscape:zoom="1.0116647"
     inkscape:cx="69.687123"
     inkscape:cy="171.49951"
     inkscape:window-width="1854"
     inkscape:window-height="1011"
     inkscape:window-x="66"
     inkscape:window-y="32"
     inkscape:window-maximized="1"
     inkscape:current-layer="layer1" /><defs
     id="defs1"><linearGradient
       id="swatch24"
       inkscape:swatch="solid"><stop
         style="stop-color:#000000;stop-opacity:1;"
         offset="0"
         id="stop24" /></linearGradient><linearGradient
       id="swatch18"
       inkscape:swatch="solid"><stop
         style="stop-color:#ffd940;stop-opacity:1;"
         offset="0"
         id="stop18" /></linearGradient><linearGradient
       id="swatch7"
       inkscape:swatch="solid"><stop
         style="stop-color:#3f3f3f;stop-opacity:0.00256431;"
         offset="0"
         id="stop7" /></linearGradient><linearGradient
       id="swatch5"><stop
         style="stop-color:#b3b3b3;stop-opacity:1;"
         offset="0"
         id="stop5" /></linearGradient></defs><g
     inkscape:label="Layer 1"
     inkscape:groupmode="layer"
     id="layer1"
     transform="translate(-54.213482,-39.533459)"><text
       xml:space="preserve"
       style="font-style:normal;font-variant:normal;font-weight:normal;font-stretch:normal;font-size:3.175px;font-family:Roboto;-inkscape-font-specification:Roboto;text-align:start;writing-mode:lr-tb;direction:ltr;text-anchor:start;fill:#000000;stroke-width:0.264583"
       x="42.534245"
       y="196.76712"
       id="text1"><tspan
         sodipodi:role="line"
         id="tspan1"
         style="font-style:normal;font-variant:normal;font-weight:normal;font-stretch:normal;font-family:Roboto;-inkscape-font-specification:Roboto;stroke-width:0.264583"
         x="42.534245"
         y="196.76712" /></text><text
       xml:space="preserve"
       style="font-style:normal;font-variant:normal;font-weight:normal;font-stretch:normal;font-size:8.46667px;font-family:Roboto;-inkscape-font-specification:Roboto;text-align:start;writing-mode:lr-tb;direction:ltr;text-anchor:start;fill:#000000;stroke-width:0.264583"
       x="48.082191"
       y="195.28767"
       id="text2"><tspan
         sodipodi:role="line"
         id="tspan2"
         style="font-size:8.46667px;stroke-width:0.264583"
         x="48.082191"
         y="195.28767" /></text><path
       style="mix-blend-mode:exclusion;fill:#ff5c8d;fill-opacity:1;fill-rule:evenodd;stroke:#ffffff;stroke-width:0.185;stroke-linejoin:round;stroke-dasharray:none;stroke-opacity:0.00256431;paint-order:normal"
       d="m 102.75226,110.99066 c -0.24479,-0.26413 -0.53677,-0.75807 -0.64883,-1.09765 -0.1322,-0.40055 -0.37875,-0.68143 -0.70193,-0.79968 -0.48262,-0.17659 -0.48451,-0.18274 -0.0605,-0.19688 0.38058,-0.0127 0.42238,-0.0809 0.32048,-0.52316 -0.20023,-0.86908 -0.46146,-7.69513 -0.47132,-12.316012 l -0.009,-4.41019 -0.7465,-1.52797 c -1.083348,-2.21748 -1.341178,-2.41193 -3.198068,-2.41193 -1.30545,0 -1.65688,0.074 -2.58431,0.54388 -1.8938,0.95958 -4.55858,4.13546 -5.67286,6.76092 -0.62542,1.47359 -0.91205,2.95233 -1.03954,5.363012 -0.11058,2.09104 -0.0997,2.17135 0.6466,4.78752 0.78927,2.76671 0.9241,3.71933 0.5264,3.71933 -0.29089,0 -3.44187,-1.83488 -3.18857,-1.85678 0.10171,-0.009 0.006,-0.0882 -0.21313,-0.17656 -0.48633,-0.19619 -0.74733,-1.26984 -0.99879,-4.10867 -0.15533,-1.75359 -0.32077,-2.37999 -1.440895,-5.455482 -1.43725,-3.94616 -1.6745,-4.46084 -2.56068,-5.55491 -0.58638,-0.72395 -0.70493,-0.78564 -1.50265,-0.7819 -2.95545,0.0139 -5.02091,3.42305 -5.58317,9.215452 -0.18843,1.94115 0.0387,6.00367 0.46153,8.25652 0.13364,0.71199 0.23041,1.3056 0.21504,1.31914 -0.0154,0.0135 -0.74904,-0.30702 -1.63039,-0.71236 l -1.60245,-0.73698 -0.19378,-1.13695 c -0.65216,-3.82627 -0.70052,-8.416512 -0.11915,-11.308192 0.3439,-1.71054 1.61214,-4.50767 2.50478,-5.52433 1.36238,-1.55167 3.0825,-1.81614 5.50448,-0.84633 2.80544,1.12336 4.4343,2.38677 5.680825,4.40631 l 0.70543,1.14288 0.48992,-1.25919 c 1.07544,-2.76412 3.95394,-6.37123 5.94612,-7.4512 1.1019,-0.59735 1.28883,-0.63885 2.84381,-0.63136 1.97173,0.01 2.92371,0.33215 5.39501,1.82849 0.897808,0.54361 1.662928,0.96024 1.700278,0.92585 0.0373,-0.0344 0.38945,-2.0431 0.78248,-4.46381 1.71986,-10.59299 3.09863,-16.00536 4.90574,-19.25747 1.32697,-2.38808 4.70853,-5.204358 7.40134,-6.164098 0.59525,-0.21216 1.62983,-0.42707 2.29905,-0.47758 1.49683,-0.11298 2.03161,0.10196 5.09249,2.04677 1.7836,1.133248 2.41691,1.660428 3.36183,2.798448 2.27395,2.73866 3.26953,4.38378 4.16843,6.88801 1.65548,4.61195 1.76418,11.76161 0.2189,14.3984 -0.64909,1.1076 -2.14644,2.37743 -4.03192,3.41931 -2.78619,1.53958 -4.96671,2.07508 -8.55443,2.10084 l -2.41149,0.0173 -1.33337,-0.98839 c -0.73336,-0.54362 -1.33337,-1.02647 -1.33337,-1.07301 0,-0.0465 0.68655,-0.0304 1.52568,0.0359 2.90188,0.22928 5.7597,-0.37635 8.7731,-1.85922 4.21629,-2.07479 5.23545,-3.9434 5.23545,-9.599 0,-6.26816 -1.87414,-11.1217 -5.88433,-15.2388 -1.05848,-1.086708 -1.34574,-1.145578 -3.31954,-0.680208 -1.24773,0.294168 -2.59775,0.916578 -3.92626,1.810118 -3.9034,2.62541 -5.37114,5.48792 -7.38357,14.40012 -1.16333,5.15186 -2.72494,15.40013 -2.55383,16.75979 0.0475,0.37735 0.26075,1.35184 0.47392,2.16554 0.5354,2.04373 0.76123,4.42634 0.89249,9.416122 0.12952,4.92344 0.0231,5.64563 -0.91615,6.21834 -0.84606,0.51587 -1.7108,0.4706 -2.25641,-0.11812 z m -2.00507,-22.472822 c -0.39102,-0.20628 -0.752058,-0.33395 -0.802308,-0.2837 -0.1225,0.1225 0.885638,0.6605 1.235858,0.65953 0.15256,-5.3e-4 -0.0425,-0.16955 -0.43355,-0.37583 z m 21.88561,-27.71818 c -0.42751,-0.3344 -0.92466,-0.486718 -0.92466,-0.28331 0,0.11832 0.97276,0.63757 1.20206,0.64166 0.10171,0.002 -0.0231,-0.15945 -0.2774,-0.35835 z"
       id="path3" /></g></svg>
